<svg width="56" height="56" viewBox="0 0 56 56" fill="none" xmlns="http://www.w3.org/2000/svg">
<path d="M40.5 3H15.5C8.59644 3 3 8.59644 3 15.5V40.5C3 47.4036 8.59644 53 15.5 53H40.5C47.4036 53 53 47.4036 53 40.5V15.5C53 8.59644 47.4036 3 40.5 3Z" stroke="#3340FF" stroke-width="6" stroke-linecap="round" stroke-linejoin="round"/>
<path d="M38.2376 26.1146C38.5434 28.1773 38.1911 30.2839 37.2307 32.1348C36.2703 33.9857 34.7507 35.4867 32.8881 36.4242C31.0255 37.3617 28.9148 37.688 26.856 37.3567C24.7973 37.0254 22.8954 36.0534 21.4209 34.5789C19.9464 33.1044 18.9744 31.2026 18.6431 29.1438C18.3119 27.0851 18.6382 24.9743 19.5757 23.1117C20.5132 21.2491 22.0141 19.7295 23.865 18.7691C25.7159 17.8087 27.8225 17.4564 29.8852 17.7623C31.9892 18.0743 33.9371 19.0547 35.4411 20.5587C36.9451 22.0627 37.9256 24.0106 38.2376 26.1146Z" stroke="#3340FF" stroke-width="6" stroke-linecap="round" stroke-linejoin="round"/>
</svg>
