<svg width="57" height="47" viewBox="0 0 57 47" fill="none" xmlns="http://www.w3.org/2000/svg">
<path d="M57 0.026339C54.5189 1.79562 51.7718 3.14884 48.8645 4.03388C47.3041 2.22004 45.2304 0.934431 42.9237 0.35094C40.617 -0.232552 38.1887 -0.0857788 35.9672 0.77141C33.7457 1.6286 31.8382 3.15484 30.5027 5.14372C29.1672 7.1326 28.4681 9.48815 28.5 11.8918V14.5111C23.9468 14.6305 19.4351 13.6096 15.3667 11.5394C11.2983 9.46915 7.79946 6.41387 5.18182 2.64565C5.18182 2.64565 -5.18182 26.2194 18.1364 36.6966C12.8005 40.3583 6.444 42.1944 0 41.9352C23.3182 55.0318 51.8182 41.9352 51.8182 11.8132C51.8158 11.0836 51.7464 10.3558 51.6109 9.63919C54.2552 7.00284 56.1212 3.67428 57 0.026339Z" fill="#3340FF"/>
</svg>
