<svg width="76" height="84" viewBox="0 0 76 84" fill="none" xmlns="http://www.w3.org/2000/svg">
<path d="M73 57.7373V26.5151C72.9986 25.1463 72.6373 23.8019 71.9523 22.6169C71.2672 21.4318 70.2826 20.4477 69.0972 19.7633L41.7778 4.15219C40.5912 3.46711 39.2452 3.10645 37.875 3.10645C36.5048 3.10645 35.1588 3.46711 33.9722 4.15219L6.65278 19.7633C5.46736 20.4477 4.48276 21.4318 3.79775 22.6169C3.11273 23.8019 2.7514 25.1463 2.75 26.5151V57.7373C2.7514 59.1061 3.11273 60.4505 3.79775 61.6356C4.48276 62.8206 5.46736 63.8047 6.65278 64.4891L33.9722 80.1002C35.1588 80.7853 36.5048 81.146 37.875 81.146C39.2452 81.146 40.5912 80.7853 41.7778 80.1002L69.0972 64.4891C70.2826 63.8047 71.2672 62.8206 71.9523 61.6356C72.6373 60.4505 72.9986 59.1061 73 57.7373Z" stroke="white" stroke-width="5" stroke-linecap="round" stroke-linejoin="round"/>
<path d="M20.3125 11.7234L37.875 21.8706L55.4375 11.7234" stroke="white" stroke-width="5" stroke-linecap="round" stroke-linejoin="round"/>
<path d="M20.3125 72.5289V52.2734L2.75 42.1262" stroke="white" stroke-width="5" stroke-linecap="round" stroke-linejoin="round"/>
<path d="M73 42.1262L55.4375 52.2734V72.5289" stroke="white" stroke-width="5" stroke-linecap="round" stroke-linejoin="round"/>
<path d="M3.80383 22.4558L37.8751 42.1648L71.9463 22.4558" stroke="white" stroke-width="5" stroke-linecap="round" stroke-linejoin="round"/>
<path d="M37.875 81.4662V42.1262" stroke="white" stroke-width="5" stroke-linecap="round" stroke-linejoin="round"/>
</svg>
